# xmcd CD database file
#
# Track frame offsets:
#	150
#	25302
#	48844
#	71961
#	100540
#	123388
#	147281
#	172011
#	196732
#	222890
#	245579
#
# Disc length: 3526 seconds
#
# Revision: 4
# Processed by: cddbd v1.5.2PL0 Copyright (c) Steve Scherf et al.
# Submitted via: CDex 1.70beta2
#
DISCID=9d0dc40b
DTITLE=柴田淳 - Single Collection
DYEAR=2005
DGENRE=JPop
TTITLE0=ぼくの味方
TTITLE1=それでも来た道
TTITLE2=月光浴
TTITLE3=片思い
TTITLE4=隣の部屋
TTITLE5=ため息
TTITLE6=あなたとの日々
TTITLE7=未成年
TTITLE8=ちいさなぼくへ
TTITLE9=白い世界
TTITLE10=幻
EXTD=YEAR: 2005
EXTT0=
EXTT1=
EXTT2=
EXTT3=
EXTT4=
EXTT5=
EXTT6=
EXTT7=
EXTT8=
EXTT9=
EXTT10=
PLAYORDER=
